<svg width="16" height="14" xmlns="http://www.w3.org/2000/svg"><path d="M14.344 3.75v.438c0 4.343-3.281 9.312-9.313 9.312-1.875 0-3.593-.531-5.031-1.469.25.031.5.063.781.063a6.597 6.597 0 004.063-1.406A3.265 3.265 0 011.78 8.405c.219.031.407.063.625.063.281 0 .594-.063.844-.125A3.285 3.285 0 01.625 5.125v-.031c.438.25.969.375 1.5.406A3.228 3.228 0 01.656 2.781c0-.625.156-1.187.438-1.656a9.52 9.52 0 006.781 3.438c-.063-.25-.094-.5-.094-.75A3.28 3.28 0 0111.063.53c.937 0 1.78.375 2.406 1.031A6.93 6.93 0 0015.53.75a3.206 3.206 0 01-1.437 1.813 6.151 6.151 0 001.875-.5c-.438.656-1 1.218-1.625 1.687z"/></svg>